<svg width="512" height="512" viewBox="0 0 512 512" fill="none" xmlns="http://www.w3.org/2000/svg">
  <rect width="512" height="512" rx="96" fill="#FFFFFF"/>
  <path d="M246.6 47.8C250.7 39.6 262.4 39.6 266.5 47.8L319.7 155.6C321.3 158.8 324.3 161 327.8 161.5L446.9 178.8C455.9 180.1 459.5 191.1 453 197.5L366.8 281.5C364.2 284 363.1 287.6 363.7 291.1L384 409.7C385.5 418.6 376.2 425.5 368.2 421.3L261.8 365.4C258.6 363.7 254.9 363.7 251.7 365.4L145.3 421.3C137.3 425.5 128 418.6 129.5 409.7L149.8 291.1C150.4 287.6 149.3 284 146.7 281.5L60.5 197.5C54 191.1 57.6 180.1 66.6 178.8L185.7 161.5C189.2 161 192.2 158.8 193.8 155.6L246.6 47.8Z" stroke="#24292F" stroke-width="42" stroke-linejoin="round"/>
  <path d="M318 238C318 213.7 337.7 194 362 194H427C451.3 194 471 213.7 471 238V280C471 304.3 451.3 324 427 324H400.5L356.6 356.7C350.7 361.1 342.6 356 343.7 348.7L347.7 319.5C330.1 313.7 318 297.1 318 280V238Z" fill="#F6F8FA" stroke="#24292F" stroke-width="22" stroke-linejoin="round"/>
  <path d="M363 250H426" stroke="#24292F" stroke-width="20" stroke-linecap="round"/>
  <path d="M363 279H405" stroke="#24292F" stroke-width="20" stroke-linecap="round"/>
</svg>
